<svg width="145" height="48" fill="none" xmlns="http://www.w3.org/2000/svg"><path d="M73.488 32h4.104V15.152h-4.104V32Zm18.046-16.848v10.44l-6.864-10.44h-4.104V32h4.104V21.608L91.534 32h4.104V15.152h-4.104Zm13.391 0h-6.312V32h6.312c5.376 0 8.832-3.432 8.832-8.424 0-5.016-3.456-8.424-8.832-8.424Zm-2.208 13.296v-9.792h1.944c3.096 0 4.92 1.824 4.92 4.92s-1.824 4.872-4.92 4.872h-1.944Zm23.654-13.296h-10.32V32h10.32v-3.288h-6.216v-3.696h5.496v-3.168h-5.496V18.44h6.216v-3.288ZM139.355 32h4.776l-5.568-8.352 5.352-8.496h-4.656l-2.976 5.088-3.384-5.088h-4.776l5.52 8.28-5.4 8.568h4.656l3.024-5.16 3.432 5.16Z" fill="#021E66"/><path fill-rule="evenodd" clip-rule="evenodd" d="M28.183 47.637C39.443 45.657 48 35.828 48 24 48 10.745 37.255 0 24 0S0 10.745 0 24c0 11.883 8.636 21.75 19.975 23.664V31.216h8.208v16.42Zm-7.632-20.453c.928.832 2.112 1.248 3.552 1.248 1.408 0 2.56-.416 3.456-1.248.928-.864 1.392-1.92 1.392-3.168 0-1.28-.464-2.336-1.392-3.168-.896-.864-2.048-1.296-3.456-1.296-1.44 0-2.624.432-3.552 1.296-.896.832-1.344 1.888-1.344 3.168 0 1.248.448 2.304 1.344 3.168Z" fill="#021E66"/></svg>