<svg width="28" height="28" viewBox="0 0 28 28" fill="none" xmlns="http://www.w3.org/2000/svg">
<path d="M18.083 15.342H15.5513C13.4747 15.342 11.783 13.662 11.783 11.5737V9.04199C11.783 8.56366 11.398 8.16699 10.908 8.16699H7.20967C4.51467 8.16699 2.33301 9.91699 2.33301 13.0437V20.7903C2.33301 23.917 4.51467 25.667 7.20967 25.667H14.0813C16.7763 25.667 18.958 23.917 18.958 20.7903V16.217C18.958 15.727 18.5613 15.342 18.083 15.342Z" fill="#292D32"/>
<path d="M20.7904 2.33301H18.492H17.2204H13.9187C11.282 2.33301 9.14704 4.01301 9.05371 7.01134C9.12371 7.01134 9.18204 6.99967 9.25204 6.99967H12.5537H13.8254H16.1237C18.8187 6.99967 21.0004 8.74967 21.0004 11.8763V14.1747V17.3363V19.6347C21.0004 19.7047 20.9887 19.763 20.9887 19.8213C23.5904 19.7397 25.667 18.013 25.667 14.968V12.6697V9.50801V7.20967C25.667 4.08301 23.4854 2.33301 20.7904 2.33301Z" fill="#292D32"/>
<path d="M13.9771 8.34138C13.6154 7.97971 12.9971 8.22471 12.9971 8.72638V11.783C12.9971 13.0664 14.0821 14.1164 15.4121 14.1164C16.2404 14.128 17.3954 14.128 18.3871 14.128C18.8887 14.128 19.1454 13.5447 18.7954 13.1947C17.5237 11.923 15.2604 9.64804 13.9771 8.34138Z" fill="#292D32"/>
</svg>
