<svg width="28" height="28" viewBox="0 0 28 28" fill="none" xmlns="http://www.w3.org/2000/svg">
<path d="M2.33337 9.11199L2.33337 18.8887C2.33337 23.1353 4.86504 25.667 9.11171 25.667L18.8767 25.667C23.135 25.667 25.6667 23.1353 25.6667 18.8887L25.6667 9.12366C25.6667 4.87699 23.135 2.34533 18.8884 2.34533L9.11171 2.34533C4.86504 2.33366 2.33337 4.86533 2.33337 9.11199ZM16.3334 9.26366C16.5084 9.43866 16.59 9.66033 16.59 9.88199C16.59 10.1037 16.4967 10.3253 16.3334 10.5003L12.8334 14.0003L16.3334 17.5003C16.6717 17.8387 16.6717 18.3987 16.3334 18.737C15.995 19.0753 15.435 19.0753 15.0967 18.737L10.9784 14.6187C10.64 14.2803 10.64 13.7203 10.9784 13.382L15.0967 9.26366C15.435 8.92533 15.9834 8.92533 16.3334 9.26366Z" fill="#0073A7"/>
</svg>
