<svg width="28" height="28" viewBox="0 0 28 28" fill="none" xmlns="http://www.w3.org/2000/svg">
<path id="pruebaFlecha" d="M25.6666 9.11199L25.6666 18.8887C25.6666 23.1353 23.135 25.667 18.8883 25.667L9.12329 25.667C4.86496 25.667 2.33329 23.1353 2.33329 18.8887L2.33329 9.12366C2.33329 4.87699 4.86496 2.34533 9.11162 2.34533L18.8883 2.34533C23.135 2.33366 25.6666 4.86533 25.6666 9.11199ZM11.6666 9.26366C11.4916 9.43866 11.41 9.66033 11.41 9.88199C11.41 10.1037 11.5033 10.3253 11.6666 10.5003L15.1666 14.0003L11.6666 17.5003C11.3283 17.8387 11.3283 18.3987 11.6666 18.737C12.005 19.0753 12.565 19.0753 12.9033 18.737L17.0216 14.6187C17.36 14.2803 17.36 13.7203 17.0216 13.382L12.9033 9.26366C12.565 8.92533 12.0166 8.92533 11.6666 9.26366Z" fill="#0073A7"/>
</svg>
